<svg width="128" height="93" viewBox="0 0 128 93" fill="none" xmlns="http://www.w3.org/2000/svg">
<rect width="128" height="92.0719" fill="black" fill-opacity="0"/>
<path fill-rule="evenodd" clip-rule="evenodd" d="M2.85678 0C9.40672 0 34.1245 0 41.3369 0C42.4414 0 43.3239 0.895431 43.3239 2V12.4378C43.3239 13.5442 42.429 14.4405 41.3225 14.4379C36.0139 14.4253 21.7082 14.3924 17.7234 14.3924V77.6292C21.6646 77.6292 36.0132 77.6292 41.3269 77.6292C42.4315 77.6292 43.3239 78.5246 43.3239 79.6292V90.0719C43.3239 91.1764 42.4414 92.0719 41.3369 92.0719C34.1245 92.0719 9.40671 92.0719 2.85678 92.0719C2.08086 92.0719 1.41076 91.809 0.846453 91.2833C0.282148 90.7575 0 90.1332 0 89.4103V2.66161C0 1.9387 0.282148 1.31438 0.846453 0.788624C1.41076 0.262872 2.08086 0 2.85678 0ZM125.143 0C118.593 0 93.8755 0 86.6631 0C85.5586 0 84.6761 0.895431 84.6761 2V12.4378C84.6761 13.5442 85.571 14.4405 86.6775 14.4379C91.9861 14.4253 106.292 14.3924 110.277 14.3924V77.6292C106.335 77.6292 91.9868 77.6292 86.6731 77.6292C85.5685 77.6292 84.6761 78.5246 84.6761 79.6292V90.0719C84.6761 91.1764 85.5586 92.0719 86.6631 92.0719C93.8755 92.0719 118.593 92.0719 125.143 92.0719C125.919 92.0719 126.589 91.809 127.154 91.2833C127.718 90.7575 128 90.1332 128 89.4103V2.66161C128 1.9387 127.718 1.31438 127.154 0.788624C126.589 0.262872 125.919 0 125.143 0Z" fill="white"/>
<path fill-rule="evenodd" clip-rule="evenodd" d="M59.7525 39.8216H51.3629V52.3451H59.7525C60.0924 52.3451 60.3859 52.4603 60.6332 52.6906C60.8804 52.9209 61.004 53.1944 61.004 53.5111V60.032C61.004 60.3487 60.8804 60.6222 60.6332 60.8525C60.3859 61.0828 60.0924 61.198 59.7525 61.198H30.3657C30.0258 61.198 29.7323 61.0828 29.4851 60.8525C29.2379 60.6222 29.1143 60.3487 29.1143 60.032V53.5111C29.1143 53.1944 29.2379 52.9209 29.4851 52.6906C29.7323 52.4603 30.0258 52.3451 30.3657 52.3451H38.848V39.8216H30.3657C30.0258 39.8216 29.7323 39.7064 29.4851 39.4761C29.2379 39.2458 29.1143 38.9723 29.1143 38.6556V32.1347C29.1143 31.818 29.2379 31.5445 29.4851 31.3142C29.7323 31.0839 30.0258 30.9688 30.3657 30.9688H59.7525C60.0924 30.9688 60.3859 31.0839 60.6332 31.3142C60.8804 31.5445 61.004 31.818 61.004 32.1347V38.6556C61.004 38.9723 60.8804 39.2458 60.6332 39.4761C60.3859 39.7064 60.0924 39.8216 59.7525 39.8216ZM88.8509 30.9688H97.4723C97.8122 30.9688 98.1057 31.0839 98.353 31.3142C98.6002 31.5445 98.7238 31.818 98.7238 32.1347V60.032C98.7238 60.3487 98.6002 60.6222 98.353 60.8525C98.1057 61.0828 97.8122 61.198 97.4723 61.198H90.0097C89.2681 61.198 88.6501 60.8957 88.1557 60.2911L78.0511 48.2858V60.032C78.0511 60.3487 77.9275 60.6222 77.6803 60.8525C77.4331 61.0828 77.1395 61.198 76.7996 61.198H68.1782C67.8383 61.198 67.5448 61.0828 67.2976 60.8525C67.0504 60.6222 66.9268 60.3487 66.9268 60.032V32.1347C66.9268 31.818 67.0504 31.5445 67.2976 31.3142C67.5448 31.0839 67.8383 30.9688 68.1782 30.9688H75.6872C76.4288 30.9688 77.0313 31.2566 77.4949 31.8324L87.5994 44.831V32.1347C87.5994 31.818 87.723 31.5445 87.9703 31.3142C88.2175 31.0839 88.511 30.9688 88.8509 30.9688Z" fill="white"/>
</svg>
