<svg width="20" height="16" viewBox="0 0 20 16" fill="none" xmlns="http://www.w3.org/2000/svg">
<path fill-rule="evenodd" clip-rule="evenodd" d="M18.6265 12.32L11.5065 1.12C11.0665 0.439995 10.3065 0 9.50649 0C8.70649 0 7.94649 0.399995 7.50649 1.12L0.386466 12.32C-0.093534 13.04 -0.133514 14 0.306486 14.76C0.706486 15.52 1.50647 16 2.38647 16H16.6265C17.5065 16 18.3065 15.52 18.7065 14.76C19.1465 13.96 19.1065 13.04 18.6265 12.32ZM9.58647 13.6C9.14647 13.6 8.78647 13.24 8.78647 12.8C8.78647 12.36 9.14647 12 9.58647 12C10.0265 12 10.3865 12.36 10.3865 12.8C10.3865 13.24 10.0265 13.6 9.58647 13.6ZM10.3865 10.4C10.3865 10.84 10.0265 11.2 9.58647 11.2C9.14647 11.2 8.78647 10.84 8.78647 10.4V4.8C8.78647 4.36 9.14647 4 9.58647 4C10.0265 4 10.3865 4.36 10.3865 4.8V10.4Z" fill="#E0E0E0"/>
</svg>
