<svg width="20" height="20" viewBox="0 0 20 20" fill="none" xmlns="http://www.w3.org/2000/svg">
<path opacity="0.15" fill-rule="evenodd" clip-rule="evenodd" d="M13.3056 4.158C15.0104 4.158 16.5904 4.61538 17.8794 5.40541C16.7568 2.2869 13.264 0 9.14761 0C4.07484 0 0 3.40956 0 7.60914C0 9.60499 0.914741 11.3929 2.37004 12.7235L0 19.1268L5.94597 15.1351C5.32227 14.0956 4.9896 12.8898 4.9896 11.6424C4.9896 7.52599 8.73181 4.158 13.3056 4.158ZM19.9584 11.6424C19.9584 8.44075 16.9647 5.82121 13.3056 5.82121C9.64657 5.82121 6.65281 8.44075 6.65281 11.6424C6.65281 14.8441 9.64657 17.4636 13.3056 17.4636C14.0956 17.4636 14.8441 17.3389 15.5509 17.131L19.1268 20L18.3784 15.4678C19.3763 14.3867 19.9584 13.0561 19.9584 11.6424Z" fill="#222222"/>
</svg>
