<svg width="20" height="20" viewBox="0 0 20 20" xmlns="http://www.w3.org/2000/svg">
<path fill-rule="evenodd" clip-rule="evenodd" d="M10 0C4.45833 0 0 4.45833 0 10C0 15.5417 4.45833 20 10 20C15.5417 20 20 15.5417 20 10C20 4.45833 15.5417 0 10 0ZM10 18.3333C5.41667 18.3333 1.66667 14.5833 1.66667 10C1.66667 5.41667 5.41667 1.66667 10 1.66667C14.5833 1.66667 18.3333 5.41667 18.3333 10C18.3333 14.5833 14.5833 18.3333 10 18.3333ZM13.3333 9.16667H10.8333V5C10.8333 4.54167 10.4583 4.16667 10 4.16667C9.54167 4.16667 9.16667 4.54167 9.16667 5V10C9.16667 10.4583 9.54167 10.8333 10 10.8333H13.3333C13.7917 10.8333 14.1667 10.4583 14.1667 10C14.1667 9.54167 13.7917 9.16667 13.3333 9.16667Z"/>
</svg>
