<svg width="20" height="6" viewBox="0 0 20 6" fill="none" xmlns="http://www.w3.org/2000/svg">
<path d="M2.58 5.91105C1.88667 5.91105 1.29333 5.67105 0.8 5.19105C0.32 4.69772 0.08 4.09105 0.08 3.37105C0.08 2.65105 0.32 2.05105 0.8 1.57105C1.29333 1.09105 1.88667 0.851054 2.58 0.851054C3.27333 0.851054 3.86 1.09105 4.34 1.57105C4.83333 2.05105 5.08 2.65105 5.08 3.37105C5.08 4.09105 4.83333 4.69772 4.34 5.19105C3.86 5.67105 3.27333 5.91105 2.58 5.91105ZM9.86516 5.91105C9.17182 5.91105 8.57849 5.67105 8.08516 5.19105C7.60516 4.69772 7.36516 4.09105 7.36516 3.37105C7.36516 2.65105 7.60516 2.05105 8.08516 1.57105C8.57849 1.09105 9.17182 0.851054 9.86516 0.851054C10.5585 0.851054 11.1452 1.09105 11.6252 1.57105C12.1185 2.05105 12.3652 2.65105 12.3652 3.37105C12.3652 4.09105 12.1185 4.69772 11.6252 5.19105C11.1452 5.67105 10.5585 5.91105 9.86516 5.91105ZM17.1503 5.91105C16.457 5.91105 15.8636 5.67105 15.3703 5.19105C14.8903 4.69772 14.6503 4.09105 14.6503 3.37105C14.6503 2.65105 14.8903 2.05105 15.3703 1.57105C15.8636 1.09105 16.457 0.851054 17.1503 0.851054C17.8436 0.851054 18.4303 1.09105 18.9103 1.57105C19.4036 2.05105 19.6503 2.65105 19.6503 3.37105C19.6503 4.09105 19.4036 4.69772 18.9103 5.19105C18.4303 5.67105 17.8436 5.91105 17.1503 5.91105Z" fill="white"/>
</svg>
