<svg width="32" height="31" viewBox="0 0 32 31" xmlns="http://www.w3.org/2000/svg">
<path d="M16.2009 0.62207C7.48961 0.62207 0.402344 7.31522 0.402344 15.5421C0.402344 23.7689 7.48961 30.4621 16.2009 30.4621C24.9122 30.4621 31.9995 23.7689 31.9995 15.5421C31.9995 7.31522 24.9122 0.62207 16.2009 0.62207ZM20.1299 16.0673H17.5596C17.5596 19.9455 17.5596 24.7203 17.5596 24.7203H13.7509C13.7509 24.7203 13.7509 19.9918 13.7509 16.0673H11.9404V13.0095H13.7509V11.0317C13.7509 9.61519 14.4636 7.40177 17.5946 7.40177L20.4156 7.41198V10.3802C20.4156 10.3802 18.7006 10.3802 18.3671 10.3802C18.0337 10.3802 17.5602 10.5377 17.5602 11.2132V13.0101H20.462L20.1299 16.0673Z" />
</svg>
