<svg width="30" height="28" viewBox="0 0 30 28" xmlns="http://www.w3.org/2000/svg">
<path fill-rule="evenodd" clip-rule="evenodd" d="M21.25 0C18.8125 0 15 3.75 15 3.75C15 3.75 11.1875 0 8.75 0C4.4375 0 0 3.625 0 10C0 16.375 15 27.5 15 27.5C15 27.5 30 16.3125 30 10C30 3.6875 25.5 0 21.25 0ZM15 24.375C9.5 20 2.5 13.1875 2.5 10C2.5 5.125 5.75 2.5 8.75 2.5C9.5 2.5 11.6875 4.00002 13.25 5.56252L15 7.31251L16.75 5.56252C18.3125 4.00002 20.5 2.56248 21.25 2.56248C24.25 2.56248 27.5 5.18748 27.5 10.0625C27.5 13.1875 20.5 20 15 24.375Z" />
</svg>
