<svg width="128" height="118" viewBox="0 0 128 118" fill="none" xmlns="http://www.w3.org/2000/svg">
<path fill-rule="evenodd" clip-rule="evenodd" d="M64 42.8353C52.2667 42.8353 42.6667 52.4733 42.6667 64.253C42.6667 76.0327 52.2667 85.6706 64 85.6706C75.7333 85.6706 85.3333 76.0327 85.3333 64.253C85.3333 52.4733 75.7333 42.8353 64 42.8353ZM117.333 21.4177H106.667C100.8 21.4177 96 16.5987 96 10.7088C96 4.81897 91.2 0 85.3333 0H42.6667C36.8 0 32 4.81897 32 10.7088C32 16.5987 27.2 21.4177 21.3333 21.4177H10.6667C4.8 21.4177 0 26.2366 0 32.1265V107.088C0 112.978 4.8 117.797 10.6667 117.797H117.333C123.2 117.797 128 112.978 128 107.088V32.1265C128 26.2366 123.2 21.4177 117.333 21.4177ZM64 96.3794C46.4 96.3794 32 81.9225 32 64.253C32 46.5834 46.4 32.1265 64 32.1265C81.6 32.1265 96 46.5834 96 64.253C96 81.9225 81.6 96.3794 64 96.3794Z" fill="#BDBDBD"/>
</svg>
