<svg width="14" height="20" viewBox="0 0 14 20" fill="none" xmlns="http://www.w3.org/2000/svg">
<path fill-rule="evenodd" clip-rule="evenodd" d="M1.46137 9.97912C1.46137 7.09812 3.79958 4.80166 6.63883 4.80166C6.8476 4.80166 7.01462 4.80165 7.22339 4.8434L4.80166 7.30688L5.8455 8.35072L10.0209 4.17535L5.8455 -1.01938e-05L4.80166 1.04383L7.13988 3.34028C6.97287 3.34028 6.84759 3.29854 6.68057 3.29854C3.00625 3.29854 -1.01938e-05 6.3048 -1.01938e-05 9.97912C-1.01938e-05 11.9415 0.835068 13.6952 2.17118 14.9061L3.21503 13.8622C2.12943 12.9019 1.46137 11.524 1.46137 9.97912ZM13.3194 9.97912C13.3194 8.0167 12.4843 6.26303 11.1482 5.05217L10.1044 6.09601C11.19 7.05635 11.858 8.43424 11.858 9.97912C11.858 12.8601 9.51982 15.1566 6.68057 15.1566C6.47181 15.1566 6.30481 15.1566 6.09604 15.1148L8.55949 12.6931L7.51565 11.6493L3.34028 15.8246L7.51565 20L8.55949 18.9562L6.22129 16.618C6.38831 16.618 6.51356 16.6597 6.68057 16.6597C10.3131 16.6597 13.3194 13.6534 13.3194 9.97912Z" fill="#BDBDBD"/>
</svg>
