<svg width="20" height="17" viewBox="0 0 20 17" fill="none" xmlns="http://www.w3.org/2000/svg">
<path fill-rule="evenodd" clip-rule="evenodd" d="M11.625 0C7.04168 0 3.29168 3.75 3.29168 8.33333C3.29168 8.5 3.29167 8.625 3.33333 8.75L1.04167 6.41668L0 7.45834L4.16667 11.625L8.33333 7.45834L7.29167 6.41668L5 8.66669C5 8.54169 5 8.37502 5 8.25002C5 4.58335 8 1.58335 11.6667 1.58335C15.3333 1.58335 18.3333 4.58335 18.3333 8.25002C18.3333 11.9167 15.3333 14.9167 11.6667 14.9167C9.29167 14.9167 7.20833 13.6667 6.04167 11.7917L4.83335 13C6.33335 15.1666 8.83333 16.5834 11.6667 16.5834C16.25 16.5834 20 12.8334 20 8.25002C20 3.66669 16.2083 0 11.625 0Z" fill="#111111"/>
</svg>
