<svg width="15" height="15" viewBox="0 0 15 15" xmlns="http://www.w3.org/2000/svg">
<path fill-rule="evenodd" clip-rule="evenodd" d="M10.0522 9.125C10.8351 8.15625 11.2735 6.9375 11.2735 5.625C11.2735 2.53125 8.73695 0 5.63674 0C2.53654 0 0 2.53125 0 5.625C0 8.71875 2.53654 11.25 5.63674 11.25C6.95198 11.25 8.17328 10.7813 9.14405 10.0313L14.1232 15L15 14.125L10.0522 9.125ZM5.63674 10C3.22547 10 1.25261 8.03125 1.25261 5.625C1.25261 3.21875 3.22547 1.25 5.63674 1.25C8.04802 1.25 10.0209 3.21875 10.0209 5.625C10.0209 8.03125 8.04802 10 5.63674 10Z"/>
</svg>
