<svg width="49" height="41" viewBox="0 0 49 41" fill="none" xmlns="http://www.w3.org/2000/svg">
<path fill-rule="evenodd" clip-rule="evenodd" d="M11.4 8.6C14.5 6 18.2 4.60001 22 4.20001V6.1C22 7.2 22.9 8.1 24 8.1C25.1 8.1 26 7.2 26 6.1V4.20001C28.4 4.40001 30.8 5.10001 33 6.20001L36.4 3.49999C32.8 1.29999 28.6 -6.10352e-06 24 -6.10352e-06C10.7 -6.10352e-06 0 10.7 0 24C0 30.6 2.7 36.6 7 41L9.79999 38.2C6.39999 34.8 4.5 30.5 4 26.1H5.90002C7.00002 26.1 7.90002 25.2 7.90002 24.1C7.90002 23 7.00002 22.1 5.90002 22.1H4C4.4 18.3 5.90002 14.6 8.40002 11.4L9.70001 12.7C10.5 13.5 11.7 13.5 12.5 12.7C13.3 11.9 13.3 10.7 12.5 9.9L11.4 8.6ZM41.9 15.1C43 17.3 43.7 19.7 43.9 22.1H42C40.9 22.1 40 23 40 24.1C40 25.2 40.9 26.1 42 26.1H43.9C43.5 30.5 41.6 34.8 38.2 38.2L41 41C45.3 36.7 48 30.7 48 24C48 19.5 46.7 15.2 44.5 11.6L41.9 15.1ZM26.3 17C23.8 19 21.9 20.6 21.2 21.3C19.6 22.9 19.6 25.4 21.2 27C22.8 28.6 25.3 28.6 26.9 27C27.6 26.3 29.1 24.4 31.1 22L48.1 0.200006L26.3 17Z"/>
</svg>
