<svg width="30" height="25" viewBox="0 0 30 25" xmlns="http://www.w3.org/2000/svg">
<path d="M30 2.93895C28.8971 3.43818 27.7102 3.77493 26.4649 3.92563C27.7364 3.15043 28.7114 1.9225 29.1712 0.45768C27.9819 1.17645 26.6652 1.698 25.2628 1.97956C24.1404 0.761559 22.5406 0 20.7704 0C17.3717 0 14.616 2.80624 14.616 6.26798C14.616 6.75853 14.6702 7.23668 14.7756 7.69622C9.66019 7.43451 5.12454 4.93959 2.08879 1.1473C1.55898 2.07258 1.25571 3.14919 1.25571 4.29897C1.25571 6.47326 2.34212 8.39204 3.99367 9.51577C2.9852 9.48291 2.03581 9.20073 1.20577 8.73127C1.20516 8.75732 1.20516 8.78398 1.20516 8.81065C1.20516 11.847 3.32684 14.3797 6.14274 14.9565C5.62633 15.0991 5.08252 15.176 4.52104 15.176C4.12399 15.176 3.73851 15.1369 3.36277 15.0631C4.14652 17.5531 6.41922 19.3658 9.11211 19.416C7.00566 21.0973 4.35235 22.0995 1.46824 22.0995C0.971926 22.0995 0.4817 22.0697 0 22.0114C2.72456 23.7907 5.95944 24.8276 9.43487 24.8276C20.7563 24.8276 26.9466 15.2771 26.9466 6.99419C26.9466 6.72256 26.9411 6.45155 26.9295 6.1824C28.1317 5.30053 29.1754 4.19602 30 2.93895Z" />
</svg>
