<svg width="33" height="30" viewBox="0 0 33 30" xmlns="http://www.w3.org/2000/svg">
<path fill-rule="evenodd" clip-rule="evenodd" d="M18.8738 9.09276C17.4946 9.56672 16.6231 10.7892 16.7221 12.127L16.7553 12.6432L16.2034 12.5801C14.1954 12.3379 12.4407 11.5163 10.9509 10.1357L10.2225 9.45084L10.0351 9.95662C9.638 11.0841 9.89183 12.2747 10.7191 13.0754C11.1605 13.518 11.0609 13.5812 10.3 13.3176C10.0351 13.2336 9.80336 13.1704 9.78124 13.2017C9.70436 13.2758 9.96872 14.2342 10.1783 14.6137C10.4653 15.1408 11.0499 15.6566 11.6902 15.9624L12.2311 16.2046L11.5912 16.2151C10.9735 16.2151 10.9514 16.2255 11.0177 16.4473C11.2384 17.1322 12.11 17.8593 13.081 18.1756L13.7651 18.3964L13.1695 18.7336C12.2869 19.219 11.2495 19.4925 10.212 19.5129C9.71489 19.5233 9.30676 19.5656 9.30676 19.5974C9.30676 19.7024 10.6533 20.2922 11.4364 20.5245C13.7867 21.2093 16.5788 20.9139 18.6753 19.7447C20.1651 18.9121 21.6544 17.258 22.3501 15.6561C22.7255 14.8031 23.1005 13.2435 23.1005 12.496C23.1005 12.0111 23.1337 11.9479 23.7514 11.3686C24.1158 11.0314 24.4576 10.6628 24.5239 10.5574C24.6345 10.357 24.6229 10.357 24.0605 10.536C23.1226 10.8523 22.9899 10.8101 23.4538 10.3361C23.7956 9.9989 24.2043 9.38768 24.2043 9.20863C24.2043 9.1773 24.0389 9.22952 23.8509 9.32451C23.6524 9.42995 23.2111 9.5881 22.8798 9.68259L22.2842 9.86213L21.7434 9.514C21.4453 9.32451 21.0267 9.11364 20.8055 9.05048C20.2425 8.90327 19.3815 8.92416 18.8738 9.09276ZM16.6794 29.84C7.9544 29.84 0.880859 23.1598 0.880859 14.92C0.880859 6.67969 7.9544 0 16.6794 0C25.4044 0 32.478 6.67969 32.478 14.92C32.478 23.1598 25.4044 29.84 16.6794 29.84Z"/>
</svg>
