<svg width="32" height="30" viewBox="0 0 32 30" xmlns="http://www.w3.org/2000/svg">
<path fill-rule="evenodd" clip-rule="evenodd" d="M20.8157 18.5704C20.6693 18.5704 20.5639 18.6092 20.4997 18.6918C20.436 18.7694 20.4049 18.9027 20.4049 19.0877V19.5333H21.2175V19.0877C21.2175 18.9027 21.1848 18.7694 21.12 18.6918C21.059 18.6092 20.9552 18.5704 20.8157 18.5704ZM17.6465 18.555C17.7697 18.555 17.8661 18.5928 17.9329 18.6694C17.9977 18.746 18.0304 18.8599 18.0304 19.0086V21.2884C18.0304 21.4306 18.0025 21.5306 17.9498 21.5922C17.8971 21.6554 17.815 21.6862 17.7023 21.6862C17.6243 21.6862 17.5511 21.6698 17.4806 21.6385C17.4095 21.6077 17.3363 21.5535 17.262 21.4828V18.7321C17.3247 18.6714 17.3879 18.6261 17.4516 18.5973C17.5153 18.568 17.5801 18.555 17.6465 18.555ZM20.4054 20.2206V21.0521C20.4054 21.2849 20.4354 21.446 20.4949 21.5365C20.5571 21.6266 20.6598 21.6703 20.8067 21.6703C20.9589 21.6703 21.0653 21.6325 21.1258 21.5564C21.1859 21.4804 21.218 21.3132 21.218 21.0526V20.8512H22.1633V21.078C22.1633 21.5311 22.049 21.8718 21.8173 22.102C21.5882 22.3303 21.2438 22.4437 20.7862 22.4437C20.3749 22.4437 20.05 22.3233 19.8135 22.0801C19.5776 21.8384 19.4575 21.5047 19.4575 21.0785V19.0961C19.4575 18.7142 19.5886 18.4009 19.8483 18.1601C20.1079 17.9189 20.4423 17.7986 20.8546 17.7986C21.2754 17.7986 21.5987 17.9105 21.8252 18.1338C22.0511 18.3566 22.1633 18.6774 22.1633 19.0961V20.2221H20.4054V20.2206ZM18.7597 22.1289C18.617 22.296 18.4074 22.378 18.1346 22.378C17.954 22.378 17.7944 22.3472 17.6544 22.2825C17.5138 22.2184 17.381 22.1199 17.2615 21.9837V22.3223H16.3326V16.3384H17.2615V18.2656C17.3863 18.1313 17.5169 18.0279 17.6554 17.9587C17.796 17.8881 17.9366 17.8538 18.0793 17.8538C18.3711 17.8538 18.5928 17.9478 18.7455 18.1348C18.9003 18.3233 18.9762 18.5988 18.9762 18.9604V21.4102C18.9762 21.7226 18.904 21.9618 18.7597 22.1289ZM14.7232 22.3223V21.8369C14.5521 22.0165 14.3767 22.1532 14.1918 22.2457C14.0081 22.3407 13.8306 22.386 13.6579 22.386C13.4446 22.386 13.2866 22.3218 13.1771 22.1891C13.0712 22.0568 13.0164 21.8618 13.0164 21.5977V17.9065H13.9349V21.2929C13.9349 21.3978 13.9543 21.4729 13.9912 21.5201C14.0318 21.5674 14.0944 21.5903 14.1797 21.5903C14.2471 21.5903 14.3335 21.5594 14.4367 21.4968C14.5405 21.4346 14.6342 21.356 14.7222 21.2605V17.9065H15.6406V22.3218L14.7232 22.3223ZM11.5414 17.2078V22.3223H10.505V17.2078H9.43385V16.3384H12.6125V17.2078H11.5414ZM15.7954 14.4117C15.7954 14.4117 22.157 14.4207 22.9121 15.1329C23.6699 15.8466 23.6784 19.3672 23.6784 19.3876C23.6784 19.3876 23.672 22.9271 22.9121 23.6428C22.157 24.3539 15.7954 24.3694 15.7954 24.3694C15.7954 24.3694 9.43437 24.3539 8.67762 23.6423C7.92035 22.9286 7.91877 19.4139 7.91877 19.3871C7.91877 19.3667 7.92087 15.8461 8.67762 15.1324C9.4349 14.4207 15.7954 14.4117 15.7954 14.4117ZM20.812 12.5602H19.7766V12.023C19.5881 12.2205 19.389 12.3727 19.1816 12.4751C18.9751 12.5786 18.7755 12.6303 18.5812 12.6303C18.34 12.6303 18.1615 12.5577 18.0404 12.413C17.9198 12.2682 17.8587 12.0514 17.8587 11.761V7.69674H18.8919V11.4253C18.8919 11.5401 18.9156 11.6237 18.9588 11.6749C19.0009 11.7266 19.0725 11.7525 19.1689 11.7525C19.2442 11.7525 19.3411 11.7182 19.4575 11.65C19.5734 11.5819 19.6803 11.4949 19.7761 11.388V7.69674H20.8114L20.812 12.5602ZM15.1914 11.7311C15.2646 11.8042 15.3699 11.84 15.5073 11.84C15.6474 11.84 15.758 11.8027 15.8412 11.7291C15.9239 11.6535 15.965 11.5511 15.965 11.4218V8.77247C15.965 8.66604 15.9228 8.58 15.8381 8.51436C15.7538 8.44921 15.6432 8.41688 15.5073 8.41688C15.3804 8.41688 15.2783 8.44921 15.1987 8.51436C15.1208 8.58 15.0803 8.66604 15.0803 8.77247V11.4218C15.0803 11.5546 15.1182 11.657 15.1914 11.7311ZM14.4336 7.9091C14.7116 7.6858 15.0871 7.5739 15.5563 7.5739C15.9839 7.5739 16.3357 7.69177 16.6101 7.9275C16.8823 8.16274 17.0193 8.46612 17.0193 8.83663V11.3487C17.0193 11.7644 16.885 12.0902 16.618 12.3274C16.3478 12.5641 15.9797 12.6825 15.5089 12.6825C15.0571 12.6825 14.6942 12.5602 14.422 12.3165C14.1518 12.0718 14.0154 11.743 14.0154 11.3298V8.80927C14.0149 8.4318 14.1539 8.13191 14.4336 7.9091ZM11.197 5.96801H10.0231L11.4102 9.94817V12.5602H12.5757V9.82483L13.9312 5.96801H12.7463L12.0269 8.60288H11.9537L11.197 5.96801ZM15.7986 29.84C7.07354 29.84 0 23.1598 0 14.92C0 6.67969 7.07354 0 15.7986 0C24.5236 0 31.5971 6.67969 31.5971 14.92C31.5971 23.1598 24.5236 29.84 15.7986 29.84Z"/>
</svg>
